<svg xmlns="http://www.w3.org/2000/svg" width="1600" height="930" viewBox="0 0 1600 930"><rect width="100%" height="100%" fill="#3e3e3e"/><path fill="#b0b0ef" d="M654.34 465.115q0-7.21 2.67-13.72 2.68-6.51 7.33-11.16t11.16-7.44 13.95-2.79 13.83 2.79 11.16 7.44 7.56 11.16 2.79 13.72q0 7.44-2.79 13.83-2.79 6.4-7.56 11.05t-11.16 7.32q-6.39 2.68-13.83 2.68t-13.95-2.68q-6.51-2.67-11.16-7.32t-7.33-11.05q-2.67-6.39-2.67-13.83m110.44 0q0-7.21 2.67-13.72t7.32-11.16 11.16-7.44 13.95-2.79 13.84 2.79q6.39 2.79 11.16 7.44 4.76 4.65 7.55 11.16t2.79 13.72q0 7.44-2.79 13.83-2.79 6.4-7.55 11.05-4.77 4.65-11.16 7.32-6.4 2.68-13.84 2.68t-13.95-2.68q-6.51-2.67-11.16-7.32t-7.32-11.05q-2.67-6.39-2.67-13.83m110.43 0q0-7.21 2.68-13.72 2.67-6.51 7.32-11.16t11.16-7.44 13.95-2.79 13.84 2.79q6.39 2.79 11.15 7.44 4.77 4.65 7.56 11.16t2.79 13.72q0 7.44-2.79 13.83-2.79 6.4-7.56 11.05-4.76 4.65-11.15 7.32-6.4 2.68-13.84 2.68t-13.95-2.68q-6.51-2.67-11.16-7.32t-7.32-11.05q-2.68-6.39-2.68-13.83"/></svg>