<?xml version="1.0" encoding="UTF-8" standalone="no"?>
<!-- Created with Inkscape (http://www.inkscape.org/) -->

<svg
   width="512"
   height="512"
   viewBox="0 0 135.46667 135.46666"
   version="1.1"
   id="svg1"
   xml:space="preserve"
   inkscape:version="1.4.2 (ebf0e940d0, 2025-05-08)"
   sodipodi:docname="social-magick.svg"
   inkscape:export-filename="logo-black-128.png"
   inkscape:export-xdpi="24"
   inkscape:export-ydpi="24"
   xmlns:inkscape="http://www.inkscape.org/namespaces/inkscape"
   xmlns:sodipodi="http://sodipodi.sourceforge.net/DTD/sodipodi-0.dtd"
   xmlns="http://www.w3.org/2000/svg"
   xmlns:svg="http://www.w3.org/2000/svg"><sodipodi:namedview
     id="namedview1"
     pagecolor="#ffffff"
     bordercolor="#000000"
     borderopacity="0.25"
     inkscape:showpageshadow="2"
     inkscape:pageopacity="0.0"
     inkscape:pagecheckerboard="0"
     inkscape:deskcolor="#d1d1d1"
     inkscape:document-units="mm"
     inkscape:zoom="0.33323201"
     inkscape:cx="55.516875"
     inkscape:cy="648.19703"
     inkscape:window-width="2400"
     inkscape:window-height="1279"
     inkscape:window-x="0"
     inkscape:window-y="0"
     inkscape:window-maximized="1"
     inkscape:current-layer="layer1" /><defs
     id="defs1" /><g
     inkscape:label="Layer 1"
     inkscape:groupmode="layer"
     id="layer1"
     transform="translate(-10.413359,-9.6048058)"><path
       style="fill:#000000;stroke-width:0.803286"
       d="m 59.806592,140.42308 c -3.009732,-0.3062 -7.263887,-1.2938 -10.118426,-2.34902 -2.008456,-0.74244 -5.740355,-2.57486 -7.57894,-3.72136 -6.776495,-4.22572 -12.10753,-10.09631 -15.60764,-17.18733 -2.126242,-4.30765 -3.204705,-7.74327 -4.04397,-12.88275 -0.206566,-1.26497 -0.241828,-3.52551 -0.288379,-18.486669 -0.05491,-17.64756 -0.01928,-19.131134 0.534741,-22.264922 1.492164,-8.440364 5.268672,-15.868361 11.16542,-21.961225 6.856704,-7.084741 14.508305,-11.014685 24.64968,-12.66034 1.338385,-0.217182 3.33158,-0.249644 18.260647,-0.297391 l 16.758274,-0.05359 -1.572,-0.926225 c -2.177091,-1.282741 -4.895846,-2.593799 -7.539156,-3.635585 -2.476854,-0.976182 -3.19149,-1.421946 -3.833492,-2.391188 -0.664623,-1.003402 -0.923563,-1.937668 -0.844255,-3.046102 0.130559,-1.824752 1.199846,-3.352416 2.871669,-4.102686 0.773309,-0.347038 0.981095,-0.378719 2.092786,-0.319095 1.080959,0.05798 1.492169,0.168211 3.311211,0.887657 3.977529,1.573144 8.454571,3.901181 11.817259,6.144908 3.868479,2.581206 6.771679,5.021919 15.111789,12.704519 1.93016,1.777982 4.31509,3.959289 5.29987,4.847349 1.9478,1.756526 2.93454,2.768221 4.42001,4.531808 6.03017,7.15917 9.49419,16.931969 9.46899,26.714149 -0.005,2.256336 -0.20002,3.230553 -0.93187,4.674766 -0.50742,1.001321 -1.65265,2.304637 -2.57228,2.927344 -0.68386,0.463063 -2.07932,1.15156 -2.93576,1.448455 -3.12814,1.084396 -9.58703,1.247825 -18.47853,0.467552 -7.433,-0.652284 -13.52937,-2.178094 -18.764411,-4.696398 -1.723307,-0.828999 -2.26587,-1.284648 -2.862415,-2.403875 -1.130377,-2.120812 -0.526972,-4.844893 1.360904,-6.143791 0.926358,-0.637344 1.725708,-0.887792 2.863547,-0.897174 0.8936,-0.0072 1.176951,0.06708 2.578308,0.677419 3.435748,1.496402 5.649747,2.229047 8.650837,2.862688 3.72557,0.786602 9.73925,1.361032 15.26893,1.458487 3.20146,0.05639 3.89512,0.02964 4.94176,-0.190733 l 1.21754,-0.256353 -0.0406,-1.289154 c -0.2092,-6.63492 -2.72938,-13.450179 -6.91231,-18.692747 -1.10722,-1.38771 -3.48849,-3.748673 -4.86428,-4.822789 -4.96224,-3.87414 -11.08203,-6.210141 -17.76174,-6.779892 -2.24549,-0.191533 -31.211295,-0.184489 -33.446406,0.0081 -6.382699,0.550057 -12.586265,3.053202 -17.61845,7.109063 -6.863497,5.531869 -11.217482,13.706505 -11.963754,22.46203 -0.108337,1.271048 -0.142209,6.954364 -0.106715,17.904932 0.05777,17.822818 0.01575,16.987988 1.055889,20.980268 3.406187,13.07374 14.736537,22.72398 28.254298,24.06463 4.715524,0.46768 9.354873,-0.41769 13.700355,-2.61453 4.85406,-2.45397 7.949347,-6.47691 9.17162,-11.92039 0.364981,-1.62546 0.443414,-5.73722 0.14378,-7.53788 -1.088646,-6.54227 -5.721616,-11.43688 -12.467022,-13.171103 -2.598557,-0.668076 -5.942431,-0.364611 -9.018083,0.818422 -4.561942,1.754715 -7.623389,4.522221 -8.376194,7.571961 -0.208338,0.84403 -0.220847,2.85107 -0.02413,3.87229 0.497251,2.58143 2.137524,4.78338 4.480302,6.01448 2.669508,1.40278 5.348868,1.80149 7.486817,1.11409 0.884099,-0.28426 2.325578,-1.11932 2.494892,-1.44532 0.274112,-0.52776 -0.274064,-1.18274 -1.868997,-2.23314 -2.217692,-1.46055 -2.877981,-2.49259 -2.89773,-4.52923 -0.01025,-1.05694 0.04099,-1.32503 0.388439,-2.03257 0.975115,-1.98569 3.273741,-3.15836 5.283467,-2.69543 1.894931,0.43651 5.271707,2.96758 6.78109,5.08279 3.224279,4.51841 2.656171,9.75934 -1.486963,13.71767 -1.800374,1.72006 -4.097308,2.92792 -6.960859,3.66041 -1.25643,0.32139 -1.747127,0.3692 -3.87374,0.37746 -2.045799,0.008 -2.671289,-0.0435 -3.912725,-0.32148 -2.096852,-0.4696 -3.428517,-0.93356 -5.397838,-1.88065 -5.677558,-2.73044 -9.123764,-7.34641 -10.112274,-13.54474 -0.233102,-1.46163 -0.234272,-5.16236 -0.002,-6.37416 0.464244,-2.4222 1.535698,-4.942413 2.959454,-6.961104 0.383506,-0.543759 1.40897,-1.702673 2.278807,-2.575359 3.885624,-3.89833 10.080497,-6.752976 16.31539,-7.518268 5.786305,-0.710225 12.833344,1.480746 18.40334,5.721723 1.585028,1.206835 4.105493,3.892923 5.203617,5.545563 3.919829,5.899185 5.164494,13.187415 3.618042,21.185685 -1.378053,7.12731 -5.206107,12.86059 -11.234009,16.82519 -4.003981,2.63346 -9.558224,4.62051 -15.009255,5.36964 -1.744655,0.23977 -5.285473,0.26883 -7.336096,0.0603 z M 107.57698,110.1697 c -0.99679,-0.33016 -1.40573,-0.61147 -2.45942,-1.6917 -3.50621,-3.59459 -7.008519,-8.888165 -9.223899,-13.941531 -1.843945,-4.206114 -2.28568,-5.89822 -1.913148,-7.328455 0.615067,-2.361427 2.476671,-3.722202 4.938688,-3.610039 2.051849,0.09347 3.550679,1.273738 4.358909,3.432496 0.21772,0.581515 0.55431,1.476277 0.74796,1.988363 0.72772,1.924246 2.66226,5.624327 3.94602,7.547291 1.34999,2.022206 2.51329,3.524065 4.02064,5.190835 0.45911,0.50768 0.99535,1.23998 1.19164,1.62734 1.58372,3.12533 -0.5299,6.76431 -4.02392,6.92788 -0.58644,0.0275 -1.25096,-0.0323 -1.58347,-0.14248 z m -6.45782,-48.579396 c -3.991841,-1.260484 -5.635579,-6.040456 -3.230061,-9.39294 1.180912,-1.645782 2.669171,-2.451871 4.695471,-2.543197 1.96707,-0.08866 3.3176,0.428754 4.68298,1.794133 3.19278,3.192782 1.81881,8.627601 -2.55817,10.118983 -0.82752,0.281961 -2.7315,0.294171 -3.59022,0.02305 z"
       id="path1" /></g></svg>
