
<svg xmlns="http://www.w3.org/2000/svg" width="1600" height="930" viewBox="0 0 1600 930"><rect width="100%" height="100%" fill="#3e3e3e"/><path fill="#ef9a9a" d="M773.725 295.275h53.94v132.98q0 21.16-2.09 41.51-2.09 20.34-5.35 43.12h-39.06q-3.25-22.78-5.35-43.12-2.09-20.35-2.09-41.51zm-9.07 304.57q0-7.21 2.68-13.72 2.67-6.51 7.44-11.16 4.76-4.65 11.27-7.44t13.95-2.79q7.21 0 13.72 2.79t11.28 7.44 7.55 11.16q2.8 6.51 2.8 13.72 0 7.44-2.8 13.83-2.78 6.4-7.55 11.05t-11.28 7.32q-6.51 2.68-13.72 2.68-7.44 0-13.95-2.68-6.51-2.67-11.27-7.32-4.77-4.65-7.44-11.05-2.68-6.39-2.68-13.83"/></svg>